G75*
%MOIN*%
%OFA0B0*%
%FSLAX24Y24*%
%IPPOS*%
%LPD*%
%AMOC8*
5,1,8,0,0,1.08239X$1,22.5*
%
%ADD10C,0.0000*%
D10*
X004500Y018500D02*
X004500Y020250D01*
X004500Y020130D02*
X004500Y022005D01*
X004500Y022020D02*
X004500Y021384D01*
X004500Y022020D02*
X000850Y022020D01*
X000350Y022520D01*
X000350Y022699D01*
X000350Y022700D02*
X000350Y027480D01*
X000850Y027980D01*
X004500Y027980D01*
X004500Y029880D01*
X004500Y029250D02*
X004500Y036000D01*
X004500Y035996D02*
X044620Y035996D01*
X044620Y018500D01*
X004500Y018500D01*
X005857Y021000D02*
X005859Y021050D01*
X005865Y021101D01*
X005875Y021150D01*
X005888Y021199D01*
X005906Y021246D01*
X005927Y021292D01*
X005952Y021336D01*
X005980Y021378D01*
X006011Y021418D01*
X006045Y021455D01*
X006082Y021489D01*
X006122Y021520D01*
X006164Y021548D01*
X006208Y021573D01*
X006254Y021594D01*
X006301Y021612D01*
X006350Y021625D01*
X006399Y021635D01*
X006450Y021641D01*
X006500Y021643D01*
X006550Y021641D01*
X006601Y021635D01*
X006650Y021625D01*
X006699Y021612D01*
X006746Y021594D01*
X006792Y021573D01*
X006836Y021548D01*
X006878Y021520D01*
X006918Y021489D01*
X006955Y021455D01*
X006989Y021418D01*
X007020Y021378D01*
X007048Y021336D01*
X007073Y021292D01*
X007094Y021246D01*
X007112Y021199D01*
X007125Y021150D01*
X007135Y021101D01*
X007141Y021050D01*
X007143Y021000D01*
X007141Y020950D01*
X007135Y020899D01*
X007125Y020850D01*
X007112Y020801D01*
X007094Y020754D01*
X007073Y020708D01*
X007048Y020664D01*
X007020Y020622D01*
X006989Y020582D01*
X006955Y020545D01*
X006918Y020511D01*
X006878Y020480D01*
X006836Y020452D01*
X006792Y020427D01*
X006746Y020406D01*
X006699Y020388D01*
X006650Y020375D01*
X006601Y020365D01*
X006550Y020359D01*
X006500Y020357D01*
X006450Y020359D01*
X006399Y020365D01*
X006350Y020375D01*
X006301Y020388D01*
X006254Y020406D01*
X006208Y020427D01*
X006164Y020452D01*
X006122Y020480D01*
X006082Y020511D01*
X006045Y020545D01*
X006011Y020582D01*
X005980Y020622D01*
X005952Y020664D01*
X005927Y020708D01*
X005906Y020754D01*
X005888Y020801D01*
X005875Y020850D01*
X005865Y020899D01*
X005859Y020950D01*
X005857Y021000D01*
X028850Y030900D02*
X028852Y030950D01*
X028858Y031000D01*
X028868Y031050D01*
X028881Y031098D01*
X028898Y031146D01*
X028919Y031192D01*
X028943Y031236D01*
X028971Y031278D01*
X029002Y031318D01*
X029036Y031355D01*
X029073Y031390D01*
X029112Y031421D01*
X029153Y031450D01*
X029197Y031475D01*
X029243Y031497D01*
X029290Y031515D01*
X029338Y031529D01*
X029387Y031540D01*
X029437Y031547D01*
X029487Y031550D01*
X029538Y031549D01*
X029588Y031544D01*
X029638Y031535D01*
X029686Y031523D01*
X029734Y031506D01*
X029780Y031486D01*
X029825Y031463D01*
X029868Y031436D01*
X029908Y031406D01*
X029946Y031373D01*
X029981Y031337D01*
X030014Y031298D01*
X030043Y031257D01*
X030069Y031214D01*
X030092Y031169D01*
X030111Y031122D01*
X030126Y031074D01*
X030138Y031025D01*
X030146Y030975D01*
X030150Y030925D01*
X030150Y030875D01*
X030146Y030825D01*
X030138Y030775D01*
X030126Y030726D01*
X030111Y030678D01*
X030092Y030631D01*
X030069Y030586D01*
X030043Y030543D01*
X030014Y030502D01*
X029981Y030463D01*
X029946Y030427D01*
X029908Y030394D01*
X029868Y030364D01*
X029825Y030337D01*
X029780Y030314D01*
X029734Y030294D01*
X029686Y030277D01*
X029638Y030265D01*
X029588Y030256D01*
X029538Y030251D01*
X029487Y030250D01*
X029437Y030253D01*
X029387Y030260D01*
X029338Y030271D01*
X029290Y030285D01*
X029243Y030303D01*
X029197Y030325D01*
X029153Y030350D01*
X029112Y030379D01*
X029073Y030410D01*
X029036Y030445D01*
X029002Y030482D01*
X028971Y030522D01*
X028943Y030564D01*
X028919Y030608D01*
X028898Y030654D01*
X028881Y030702D01*
X028868Y030750D01*
X028858Y030800D01*
X028852Y030850D01*
X028850Y030900D01*
X036012Y033244D02*
X036014Y033284D01*
X036020Y033325D01*
X036030Y033364D01*
X036043Y033402D01*
X036061Y033439D01*
X036082Y033473D01*
X036106Y033506D01*
X036133Y033536D01*
X036163Y033563D01*
X036196Y033587D01*
X036230Y033608D01*
X036267Y033626D01*
X036305Y033639D01*
X036344Y033649D01*
X036385Y033655D01*
X036425Y033657D01*
X036465Y033655D01*
X036506Y033649D01*
X036545Y033639D01*
X036583Y033626D01*
X036620Y033608D01*
X036654Y033587D01*
X036687Y033563D01*
X036717Y033536D01*
X036744Y033506D01*
X036768Y033473D01*
X036789Y033439D01*
X036807Y033402D01*
X036820Y033364D01*
X036830Y033325D01*
X036836Y033284D01*
X036838Y033244D01*
X036836Y033204D01*
X036830Y033163D01*
X036820Y033124D01*
X036807Y033086D01*
X036789Y033049D01*
X036768Y033015D01*
X036744Y032982D01*
X036717Y032952D01*
X036687Y032925D01*
X036654Y032901D01*
X036620Y032880D01*
X036583Y032862D01*
X036545Y032849D01*
X036506Y032839D01*
X036465Y032833D01*
X036425Y032831D01*
X036385Y032833D01*
X036344Y032839D01*
X036305Y032849D01*
X036267Y032862D01*
X036230Y032880D01*
X036196Y032901D01*
X036163Y032925D01*
X036133Y032952D01*
X036106Y032982D01*
X036082Y033015D01*
X036061Y033049D01*
X036043Y033086D01*
X036030Y033124D01*
X036020Y033163D01*
X036014Y033204D01*
X036012Y033244D01*
M02*
