  0
SECTION
  2
HEADER
  9
$ACADVER
  1
AC1009
  9
$FILLMODE
 70
0
  9
$EXTMIN
 10
-0.240000
 20
-0.740000
 30
0.000000
  9
$EXTMAX
 10
4.240000
 20
3.174835
 30
0.000000
  0
ENDSEC
  0
SECTION
  2
TABLES
  0
TABLE
  2
LTYPE
 70
1
  0
LTYPE
  2
CONTINUOUS
 70
64
  3
Solid line
 72
65
 73
0
 40
0
  0
ENDTAB
  0
TABLE
  2
LAYER
 70
255
  0
LAYER
  2
16
 70
64
 62
175
  6
CONTINUOUS
  0
LAYER
  2
17
 70
64
 62
82
  6
CONTINUOUS
  0
LAYER
  2
21
 70
64
 62
253
  6
CONTINUOUS
  0
LAYER
  2
45
 70
64
 62
253
  6
CONTINUOUS
  0
ENDTAB
  0
ENDSEC
  0
SECTION
  2
BLOCKS
  0
BLOCK
  8
0
  2
RECT
 70
64
 10
0.000000
 20
0.000000
 30
0.000000
  3
RECT
  0
SOLID
  8
0
 10
-0.500000
 20
-0.500000
 30
0.000000
 11
0.500000
 21
-0.500000
 31
0.000000
 12
-0.500000
 22
0.500000
 32
0.000000
 13
0.500000
 23
0.500000
 33
0.000000
  0
ENDBLK
  8
0
  0
BLOCK
  8
0
  2
PIE
 70
64
 10
0.000000
 20
0.000000
 30
0.000000
  3
PIE
  0
CIRCLE
  8
0
 10
0.000000
 20
0.000000
 30
0.000000
 40
0.500000
  0
ENDBLK
  8
0
  0
BLOCK
  8
0
  2
OCTAGONP
 70
64
 10
0.000000
 20
0.000000
 30
0.000000
  3
OCTAGONP
  0
POLYLINE
  8
0
 66
1
 10
0.000000
 20
0.000000
 30
0.000000
 40
0.000000
 41
0.000000
 70
1
  0
VERTEX
  8
0
 10
-0.500000
 20
-0.207107
 30
0.000000
  0
VERTEX
  8
0
 10
-0.500000
 20
0.207107
 30
0.000000
  0
VERTEX
  8
0
 10
-0.207107
 20
0.500000
 30
0.000000
  0
VERTEX
  8
0
 10
0.207107
 20
0.500000
 30
0.000000
  0
VERTEX
  8
0
 10
0.500000
 20
0.207107
 30
0.000000
  0
VERTEX
  8
0
 10
0.500000
 20
-0.207107
 30
0.000000
  0
VERTEX
  8
0
 10
0.207107
 20
-0.500000
 30
0.000000
  0
VERTEX
  8
0
 10
-0.207107
 20
-0.500000
 30
0.000000
  0
SEQEND
  8
0
  0
ENDBLK
  8
0
  0
BLOCK
  8
0
  2
SQUAREP
 70
64
 10
0.000000
 20
0.000000
 30
0.000000
  3
SQUAREP
  0
SOLID
  8
0
 10
-0.500000
 20
-0.500000
 30
0.000000
 11
0.500000
 21
-0.500000
 31
0.000000
 12
-0.500000
 22
0.500000
 32
0.000000
 13
0.500000
 23
0.500000
 33
0.000000
  0
ENDBLK
  8
0
  0
BLOCK
  8
0
  2
ROUNDP
 70
64
 10
0.000000
 20
0.000000
 30
0.000000
  3
ROUNDP
  0
CIRCLE
  8
0
 10
0.000000
 20
0.000000
 30
0.000000
 40
0.500000
  0
ENDBLK
  8
0
  0
BLOCK
  8
0
  2
ANNULUSP
 70
64
 10
0.000000
 20
0.000000
 30
0.000000
  3
ANNULUSP
  0
CIRCLE
  8
0
 10
0.000000
 20
0.000000
 30
0.000000
 40
0.500000
  0
ENDBLK
  8
0
  0
BLOCK
  8
0
  2
THERMALP
 70
64
 10
0.000000
 20
0.000000
 30
0.000000
  3
THERMALP
  0
LINE
  8
0
 10
-0.237868
 20
0.450000
 30
0.000000
 11
0.237868
 21
0.450000
 31
0.000000
  0
LINE
  8
0
 10
0.450000
 20
0.237868
 30
0.000000
 11
0.450000
 21
-0.237868
 31
0.000000
  0
LINE
  8
0
 10
0.237868
 20
-0.450000
 30
0.000000
 11
-0.237868
 21
-0.450000
 31
0.000000
  0
LINE
  8
0
 10
-0.450000
 20
-0.237868
 30
0.000000
 11
-0.450000
 21
0.237868
 31
0.000000
  0
ENDBLK
  8
0
  0
BLOCK
  8
0
  2
OCTAGONV
 70
64
 10
0.000000
 20
0.000000
 30
0.000000
  3
OCTAGONV
  0
POLYLINE
  8
0
 66
1
 10
0.000000
 20
0.000000
 30
0.000000
 40
0.000000
 41
0.000000
 70
1
  0
VERTEX
  8
0
 10
-0.500000
 20
-0.207107
 30
0.000000
  0
VERTEX
  8
0
 10
-0.500000
 20
0.207107
 30
0.000000
  0
VERTEX
  8
0
 10
-0.207107
 20
0.500000
 30
0.000000
  0
VERTEX
  8
0
 10
0.207107
 20
0.500000
 30
0.000000
  0
VERTEX
  8
0
 10
0.500000
 20
0.207107
 30
0.000000
  0
VERTEX
  8
0
 10
0.500000
 20
-0.207107
 30
0.000000
  0
VERTEX
  8
0
 10
0.207107
 20
-0.500000
 30
0.000000
  0
VERTEX
  8
0
 10
-0.207107
 20
-0.500000
 30
0.000000
  0
SEQEND
  8
0
  0
ENDBLK
  8
0
  0
BLOCK
  8
0
  2
SQUAREV
 70
64
 10
0.000000
 20
0.000000
 30
0.000000
  3
SQUAREV
  0
SOLID
  8
0
 10
-0.500000
 20
-0.500000
 30
0.000000
 11
0.500000
 21
-0.500000
 31
0.000000
 12
-0.500000
 22
0.500000
 32
0.000000
 13
0.500000
 23
0.500000
 33
0.000000
  0
ENDBLK
  8
0
  0
BLOCK
  8
0
  2
ROUNDV
 70
64
 10
0.000000
 20
0.000000
 30
0.000000
  3
ROUNDV
  0
CIRCLE
  8
0
 10
0.000000
 20
0.000000
 30
0.000000
 40
0.500000
  0
ENDBLK
  8
0
  0
BLOCK
  8
0
  2
ANNULUSV
 70
64
 10
0.000000
 20
0.000000
 30
0.000000
  3
ANNULUSV
  0
CIRCLE
  8
0
 10
0.000000
 20
0.000000
 30
0.000000
 40
0.500000
  0
ENDBLK
  8
0
  0
BLOCK
  8
0
  2
THERMALV
 70
64
 10
0.000000
 20
0.000000
 30
0.000000
  3
THERMALV
  0
LINE
  8
0
 10
-0.237868
 20
0.450000
 30
0.000000
 11
0.237868
 21
0.450000
 31
0.000000
  0
LINE
  8
0
 10
0.450000
 20
0.237868
 30
0.000000
 11
0.450000
 21
-0.237868
 31
0.000000
  0
LINE
  8
0
 10
0.237868
 20
-0.450000
 30
0.000000
 11
-0.237868
 21
-0.450000
 31
0.000000
  0
LINE
  8
0
 10
-0.450000
 20
-0.237868
 30
0.000000
 11
-0.450000
 21
0.237868
 31
0.000000
  0
ENDBLK
  8
0
  0
BLOCK
  8
0
  2
LONGP100
 70
64
 10
0.000000
 20
0.000000
 30
0.000000
  3
LONGP100
  0
POLYLINE
  8
0
 66
1
 10
0.000000
 20
0.000000
 30
0.000000
 40
0.000000
 41
0.000000
 70
1
  0
VERTEX
  8
0
 10
-0.500000
 20
-0.500000
 30
0.000000
  0
VERTEX
  8
0
 10
0.500000
 20
-0.500000
 30
0.000000
 42
1.000000
  0
VERTEX
  8
0
 10
0.500000
 20
0.500000
 30
0.000000
  0
VERTEX
  8
0
 10
-0.500000
 20
0.500000
 30
0.000000
 42
1.000000
  0
SEQEND
  8
0
  0
ENDBLK
  8
0
  0
ENDSEC
  0
SECTION
  2
ENTITIES
  0
LINE
  8
21
 10
2.470000
 20
1.550000
 30
0.000000
 11
2.485000
 21
1.550000
 31
0.000000
  0
LINE
  8
21
 10
2.485000
 20
1.535000
 30
0.000000
 11
2.485000
 21
1.550000
 31
0.000000
  0
LINE
  8
21
 10
2.485000
 20
1.550000
 30
0.000000
 11
2.500000
 21
1.550000
 31
0.000000
  0
LINE
  8
21
 10
2.485000
 20
1.550000
 30
0.000000
 11
2.485000
 21
1.565000
 31
0.000000
  0
CIRCLE
  8
21
 10
2.550000
 20
1.500000
 30
0.000000
 40
0.110000
  0
INSERT
  8
17
  2
ROUNDP
 10
2.500000
 20
1.500000
 30
0.000000
 41
0.063000
 42
0.063000
 43
1.000000
 50
0.000000
  0
INSERT
  8
17
  2
OCTAGONP
 10
2.600000
 20
1.500000
 30
0.000000
 41
0.063000
 42
0.063000
 43
1.000000
 50
0.000000
  0
LINE
  8
21
 10
2.870000
 20
1.550000
 30
0.000000
 11
2.885000
 21
1.550000
 31
0.000000
  0
LINE
  8
21
 10
2.885000
 20
1.535000
 30
0.000000
 11
2.885000
 21
1.550000
 31
0.000000
  0
LINE
  8
21
 10
2.885000
 20
1.550000
 30
0.000000
 11
2.900000
 21
1.550000
 31
0.000000
  0
LINE
  8
21
 10
2.885000
 20
1.550000
 30
0.000000
 11
2.885000
 21
1.565000
 31
0.000000
  0
CIRCLE
  8
21
 10
2.950000
 20
1.500000
 30
0.000000
 40
0.110000
  0
INSERT
  8
17
  2
ROUNDP
 10
2.900000
 20
1.500000
 30
0.000000
 41
0.063000
 42
0.063000
 43
1.000000
 50
0.000000
  0
INSERT
  8
17
  2
OCTAGONP
 10
3.000000
 20
1.500000
 30
0.000000
 41
0.063000
 42
0.063000
 43
1.000000
 50
0.000000
  0
LINE
  8
21
 10
2.050000
 20
1.587000
 30
0.000000
 11
2.025000
 21
1.587000
 31
0.000000
  0
LINE
  8
21
 10
2.025000
 20
1.587000
 30
0.000000
 11
2.000000
 21
1.587000
 31
0.000000
  0
LINE
  8
21
 10
2.025000
 20
1.587000
 30
0.000000
 11
2.025000
 21
1.635000
 31
0.000000
  0
LINE
  8
21
 10
2.050000
 20
1.562000
 30
0.000000
 11
2.025000
 21
1.562000
 31
0.000000
  0
LINE
  8
21
 10
2.025000
 20
1.562000
 30
0.000000
 11
2.000000
 21
1.562000
 31
0.000000
  0
LINE
  8
21
 10
2.025000
 20
1.562000
 30
0.000000
 11
2.025000
 21
1.515000
 31
0.000000
  0
LINE
  8
21
 10
2.075000
 20
1.720000
 30
0.000000
 11
1.975000
 21
1.720000
 31
0.000000
  0
LINE
  8
21
 10
1.965000
 20
1.710000
 30
0.000000
 11
1.965000
 21
1.440000
 31
0.000000
  0
LINE
  8
21
 10
1.975000
 20
1.430000
 30
0.000000
 11
2.075000
 21
1.430000
 31
0.000000
  0
LINE
  8
21
 10
2.085000
 20
1.440000
 30
0.000000
 11
2.085000
 21
1.710000
 31
0.000000
  0
ARC
  8
21
 10
2.075000
 20
1.440000
 30
0.000000
 40
0.010000
 50
270.000000
 51
0.000000
  0
ARC
  8
21
 10
1.975000
 20
1.440000
 30
0.000000
 40
0.010000
 50
180.000000
 51
270.000000
  0
ARC
  8
21
 10
1.975000
 20
1.710000
 30
0.000000
 40
0.010000
 50
90.000000
 51
180.000000
  0
ARC
  8
21
 10
2.075000
 20
1.710000
 30
0.000000
 40
0.010000
 50
0.000000
 51
90.000000
  0
INSERT
  8
17
  2
OCTAGONP
 10
2.025000
 20
1.675000
 30
0.000000
 41
0.052000
 42
0.052000
 43
1.000000
 50
270.000000
  0
INSERT
  8
17
  2
OCTAGONP
 10
2.025000
 20
1.475000
 30
0.000000
 41
0.052000
 42
0.052000
 43
1.000000
 50
270.000000
  0
LINE
  8
21
 10
2.800000
 20
2.525000
 30
0.000000
 11
2.800000
 21
2.575000
 31
0.000000
  0
INSERT
  8
17
  2
ROUNDP
 10
2.850000
 20
2.550000
 30
0.000000
 41
0.047559
 42
0.047559
 43
1.000000
 50
180.000000
  0
INSERT
  8
17
  2
ROUNDP
 10
2.750000
 20
2.550000
 30
0.000000
 41
0.047559
 42
0.047559
 43
1.000000
 50
180.000000
  0
LINE
  8
21
 10
2.286220
 20
2.175394
 30
0.000000
 11
2.286220
 21
2.225394
 31
0.000000
  0
CIRCLE
  8
21
 10
2.250000
 20
2.150000
 30
0.000000
 40
0.098425
  0
INSERT
  8
17
  2
SQUAREP
 10
2.250000
 20
2.100000
 30
0.000000
 41
0.047559
 42
0.047559
 43
1.000000
 50
270.000000
  0
INSERT
  8
17
  2
ROUNDP
 10
2.250000
 20
2.200000
 30
0.000000
 41
0.047559
 42
0.047559
 43
1.000000
 50
270.000000
  0
LINE
  8
21
 10
1.250000
 20
2.275000
 30
0.000000
 11
1.250000
 21
2.325000
 31
0.000000
  0
INSERT
  8
17
  2
ROUNDP
 10
1.300000
 20
2.300000
 30
0.000000
 41
0.047559
 42
0.047559
 43
1.000000
 50
180.000000
  0
INSERT
  8
17
  2
ROUNDP
 10
1.200000
 20
2.300000
 30
0.000000
 41
0.047559
 42
0.047559
 43
1.000000
 50
180.000000
  0
LINE
  8
21
 10
1.994094
 20
2.335039
 30
0.000000
 11
1.505906
 21
2.335039
 31
0.000000
  0
LINE
  8
21
 10
1.505906
 20
2.335039
 30
0.000000
 11
1.505906
 21
2.870472
 31
0.000000
  0
LINE
  8
21
 10
1.505906
 20
2.870472
 30
0.000000
 11
1.994094
 21
2.870472
 31
0.000000
  0
LINE
  8
21
 10
1.994094
 20
2.870472
 30
0.000000
 11
1.994094
 21
2.335039
 31
0.000000
  0
INSERT
  8
17
  2
SQUAREP
 10
1.651575
 20
2.374409
 30
0.000000
 41
0.059370
 42
0.059370
 43
1.000000
 50
270.000000
  0
INSERT
  8
17
  2
SQUAREP
 10
1.750000
 20
2.374409
 30
0.000000
 41
0.059370
 42
0.059370
 43
1.000000
 50
270.000000
  0
INSERT
  8
17
  2
SQUAREP
 10
1.848425
 20
2.374409
 30
0.000000
 41
0.059370
 42
0.059370
 43
1.000000
 50
270.000000
  0
INSERT
  8
17
  2
OCTAGONP
 10
1.576772
 20
2.650000
 30
0.000000
 41
0.118110
 42
0.118110
 43
1.000000
 50
270.000000
  0
INSERT
  8
17
  2
OCTAGONP
 10
1.923228
 20
2.650000
 30
0.000000
 41
0.118110
 42
0.118110
 43
1.000000
 50
270.000000
  0
LINE
  8
21
 10
2.495000
 20
1.800000
 30
0.000000
 11
2.905000
 21
1.800000
 31
0.000000
  0
LINE
  8
21
 10
2.905000
 20
2.425000
 30
0.000000
 11
2.495000
 21
2.425000
 31
0.000000
  0
LINE
  8
21
 10
2.905000
 20
1.800000
 30
0.000000
 11
2.905000
 21
2.290000
 31
0.000000
  0
LINE
  8
21
 10
2.905000
 20
2.290000
 30
0.000000
 11
2.870000
 21
2.290000
 31
0.000000
  0
LINE
  8
21
 10
2.870000
 20
2.290000
 30
0.000000
 11
2.870000
 21
2.350000
 31
0.000000
  0
LINE
  8
21
 10
2.870000
 20
2.350000
 30
0.000000
 11
2.905000
 21
2.350000
 31
0.000000
  0
LINE
  8
21
 10
2.905000
 20
2.350000
 30
0.000000
 11
2.905000
 21
2.425000
 31
0.000000
  0
LINE
  8
21
 10
2.495000
 20
1.800000
 30
0.000000
 11
2.495000
 21
2.290000
 31
0.000000
  0
LINE
  8
21
 10
2.495000
 20
2.290000
 30
0.000000
 11
2.530000
 21
2.290000
 31
0.000000
  0
LINE
  8
21
 10
2.530000
 20
2.290000
 30
0.000000
 11
2.530000
 21
2.350000
 31
0.000000
  0
LINE
  8
21
 10
2.530000
 20
2.350000
 30
0.000000
 11
2.495000
 21
2.350000
 31
0.000000
  0
LINE
  8
21
 10
2.495000
 20
2.350000
 30
0.000000
 11
2.495000
 21
2.425000
 31
0.000000
  0
LINE
  8
21
 10
2.520000
 20
1.825000
 30
0.000000
 11
2.880000
 21
1.825000
 31
0.000000
  0
LINE
  8
21
 10
2.880000
 20
2.150000
 30
0.000000
 11
2.880000
 21
1.825000
 31
0.000000
  0
LINE
  8
21
 10
2.880000
 20
2.150000
 30
0.000000
 11
2.520000
 21
2.150000
 31
0.000000
  0
LINE
  8
21
 10
2.520000
 20
1.825000
 30
0.000000
 11
2.520000
 21
2.150000
 31
0.000000
  0
LINE
  8
21
 10
2.527000
 20
2.162000
 30
0.000000
 11
2.527000
 21
2.185353
 31
0.000000
  0
LINE
  8
21
 10
2.527000
 20
2.185353
 30
0.000000
 11
2.538677
 21
2.197030
 31
0.000000
  0
LINE
  8
21
 10
2.538677
 20
2.197030
 30
0.000000
 11
2.550353
 21
2.185353
 31
0.000000
  0
LINE
  8
21
 10
2.550353
 20
2.185353
 30
0.000000
 11
2.550353
 21
2.162000
 31
0.000000
  0
LINE
  8
21
 10
2.527000
 20
2.179515
 30
0.000000
 11
2.550353
 21
2.179515
 31
0.000000
  0
LINE
  8
21
 10
2.562911
 20
2.185353
 30
0.000000
 11
2.574587
 21
2.197030
 31
0.000000
  0
LINE
  8
21
 10
2.574587
 20
2.197030
 30
0.000000
 11
2.574587
 21
2.162000
 31
0.000000
  0
LINE
  8
21
 10
2.562911
 20
2.162000
 30
0.000000
 11
2.586264
 21
2.162000
 31
0.000000
  0
LINE
  8
21
 10
2.622175
 20
2.197030
 30
0.000000
 11
2.598821
 21
2.197030
 31
0.000000
  0
LINE
  8
21
 10
2.598821
 20
2.197030
 30
0.000000
 11
2.598821
 21
2.179515
 31
0.000000
  0
LINE
  8
21
 10
2.598821
 20
2.179515
 30
0.000000
 11
2.610498
 21
2.185353
 31
0.000000
  0
LINE
  8
21
 10
2.610498
 20
2.185353
 30
0.000000
 11
2.616336
 21
2.185353
 31
0.000000
  0
LINE
  8
21
 10
2.616336
 20
2.185353
 30
0.000000
 11
2.622175
 21
2.179515
 31
0.000000
  0
LINE
  8
21
 10
2.622175
 20
2.179515
 30
0.000000
 11
2.622175
 21
2.167838
 31
0.000000
  0
LINE
  8
21
 10
2.622175
 20
2.167838
 30
0.000000
 11
2.616336
 21
2.162000
 31
0.000000
  0
LINE
  8
21
 10
2.616336
 20
2.162000
 30
0.000000
 11
2.604660
 21
2.162000
 31
0.000000
  0
LINE
  8
21
 10
2.604660
 20
2.162000
 30
0.000000
 11
2.598821
 21
2.167838
 31
0.000000
  0
LINE
  8
21
 10
2.634732
 20
2.150323
 30
0.000000
 11
2.646409
 21
2.162000
 31
0.000000
  0
LINE
  8
21
 10
2.646409
 20
2.162000
 30
0.000000
 11
2.646409
 21
2.167838
 31
0.000000
  0
LINE
  8
21
 10
2.646409
 20
2.167838
 30
0.000000
 11
2.640570
 21
2.167838
 31
0.000000
  0
LINE
  8
21
 10
2.640570
 20
2.167838
 30
0.000000
 11
2.640570
 21
2.162000
 31
0.000000
  0
LINE
  8
21
 10
2.640570
 20
2.162000
 30
0.000000
 11
2.646409
 21
2.162000
 31
0.000000
  0
LINE
  8
21
 10
2.682026
 20
2.162000
 30
0.000000
 11
2.658672
 21
2.162000
 31
0.000000
  0
LINE
  8
21
 10
2.658672
 20
2.162000
 30
0.000000
 11
2.682026
 21
2.185353
 31
0.000000
  0
LINE
  8
21
 10
2.682026
 20
2.185353
 30
0.000000
 11
2.682026
 21
2.191192
 31
0.000000
  0
LINE
  8
21
 10
2.682026
 20
2.191192
 30
0.000000
 11
2.676187
 21
2.197030
 31
0.000000
  0
LINE
  8
21
 10
2.676187
 20
2.197030
 30
0.000000
 11
2.664511
 21
2.197030
 31
0.000000
  0
LINE
  8
21
 10
2.664511
 20
2.197030
 30
0.000000
 11
2.658672
 21
2.191192
 31
0.000000
  0
LINE
  8
21
 10
2.694583
 20
2.162000
 30
0.000000
 11
2.694583
 21
2.185353
 31
0.000000
  0
LINE
  8
21
 10
2.694583
 20
2.185353
 30
0.000000
 11
2.700421
 21
2.185353
 31
0.000000
  0
LINE
  8
21
 10
2.700421
 20
2.185353
 30
0.000000
 11
2.706260
 21
2.179515
 31
0.000000
  0
LINE
  8
21
 10
2.706260
 20
2.179515
 30
0.000000
 11
2.706260
 21
2.162000
 31
0.000000
  0
LINE
  8
21
 10
2.706260
 20
2.179515
 30
0.000000
 11
2.712098
 21
2.185353
 31
0.000000
  0
LINE
  8
21
 10
2.712098
 20
2.185353
 30
0.000000
 11
2.717936
 21
2.179515
 31
0.000000
  0
LINE
  8
21
 10
2.717936
 20
2.179515
 30
0.000000
 11
2.717936
 21
2.162000
 31
0.000000
  0
LINE
  8
21
 10
2.730494
 20
2.162000
 30
0.000000
 11
2.730494
 21
2.185353
 31
0.000000
  0
LINE
  8
21
 10
2.730494
 20
2.185353
 30
0.000000
 11
2.736332
 21
2.185353
 31
0.000000
  0
LINE
  8
21
 10
2.736332
 20
2.185353
 30
0.000000
 11
2.742170
 21
2.179515
 31
0.000000
  0
LINE
  8
21
 10
2.742170
 20
2.179515
 30
0.000000
 11
2.742170
 21
2.162000
 31
0.000000
  0
LINE
  8
21
 10
2.742170
 20
2.179515
 30
0.000000
 11
2.748009
 21
2.185353
 31
0.000000
  0
LINE
  8
21
 10
2.748009
 20
2.185353
 30
0.000000
 11
2.753847
 21
2.179515
 31
0.000000
  0
LINE
  8
21
 10
2.753847
 20
2.179515
 30
0.000000
 11
2.753847
 21
2.162000
 31
0.000000
  0
CIRCLE
  8
21
 10
2.700000
 20
2.290000
 30
0.000000
 40
0.071000
  0
INSERT
  8
21
  2
RECT
 10
2.800000
 20
1.782500
 30
0.000000
 41
0.050000
 42
0.035000
 43
1.000000
 50
0.000000
  0
INSERT
  8
21
  2
RECT
 10
2.700000
 20
1.782500
 30
0.000000
 41
0.050000
 42
0.035000
 43
1.000000
 50
0.000000
  0
INSERT
  8
21
  2
RECT
 10
2.600000
 20
1.782500
 30
0.000000
 41
0.050000
 42
0.035000
 43
1.000000
 50
0.000000
  0
INSERT
  8
17
  2
LONGP100
 10
2.700000
 20
1.700000
 30
0.000000
 41
0.060000
 42
0.060000
 43
1.000000
 50
90.000000
  0
INSERT
  8
17
  2
LONGP100
 10
2.600000
 20
1.700000
 30
0.000000
 41
0.060000
 42
0.060000
 43
1.000000
 50
90.000000
  0
INSERT
  8
17
  2
LONGP100
 10
2.800000
 20
1.700000
 30
0.000000
 41
0.060000
 42
0.060000
 43
1.000000
 50
90.000000
  0
LINE
  8
21
 10
1.135000
 20
2.200000
 30
0.000000
 11
1.135000
 21
1.500000
 31
0.000000
  0
LINE
  8
21
 10
1.365000
 20
1.500000
 30
0.000000
 11
1.365000
 21
2.200000
 31
0.000000
  0
LINE
  8
21
 10
1.135000
 20
2.200000
 30
0.000000
 11
1.365000
 21
2.200000
 31
0.000000
  0
LINE
  8
21
 10
1.135000
 20
1.500000
 30
0.000000
 11
1.210000
 21
1.500000
 31
0.000000
  0
LINE
  8
21
 10
1.365000
 20
1.500000
 30
0.000000
 11
1.290000
 21
1.500000
 31
0.000000
  0
ARC
  8
21
 10
1.250000
 20
1.500000
 30
0.000000
 40
0.040000
 50
0.000000
 51
180.000000
  0
INSERT
  8
17
  2
LONGP100
 10
1.400000
 20
1.550000
 30
0.000000
 41
0.052000
 42
0.052000
 43
1.000000
 50
180.000000
  0
INSERT
  8
17
  2
LONGP100
 10
1.400000
 20
1.650000
 30
0.000000
 41
0.052000
 42
0.052000
 43
1.000000
 50
180.000000
  0
INSERT
  8
17
  2
LONGP100
 10
1.400000
 20
1.750000
 30
0.000000
 41
0.052000
 42
0.052000
 43
1.000000
 50
180.000000
  0
INSERT
  8
17
  2
LONGP100
 10
1.400000
 20
1.850000
 30
0.000000
 41
0.052000
 42
0.052000
 43
1.000000
 50
180.000000
  0
INSERT
  8
17
  2
LONGP100
 10
1.400000
 20
1.950000
 30
0.000000
 41
0.052000
 42
0.052000
 43
1.000000
 50
180.000000
  0
INSERT
  8
17
  2
LONGP100
 10
1.400000
 20
2.050000
 30
0.000000
 41
0.052000
 42
0.052000
 43
1.000000
 50
180.000000
  0
INSERT
  8
17
  2
LONGP100
 10
1.400000
 20
2.150000
 30
0.000000
 41
0.052000
 42
0.052000
 43
1.000000
 50
180.000000
  0
INSERT
  8
17
  2
LONGP100
 10
1.100000
 20
2.150000
 30
0.000000
 41
0.052000
 42
0.052000
 43
1.000000
 50
180.000000
  0
INSERT
  8
17
  2
LONGP100
 10
1.100000
 20
2.050000
 30
0.000000
 41
0.052000
 42
0.052000
 43
1.000000
 50
180.000000
  0
INSERT
  8
17
  2
LONGP100
 10
1.100000
 20
1.950000
 30
0.000000
 41
0.052000
 42
0.052000
 43
1.000000
 50
180.000000
  0
INSERT
  8
17
  2
LONGP100
 10
1.100000
 20
1.850000
 30
0.000000
 41
0.052000
 42
0.052000
 43
1.000000
 50
180.000000
  0
INSERT
  8
17
  2
LONGP100
 10
1.100000
 20
1.750000
 30
0.000000
 41
0.052000
 42
0.052000
 43
1.000000
 50
180.000000
  0
INSERT
  8
17
  2
LONGP100
 10
1.100000
 20
1.650000
 30
0.000000
 41
0.052000
 42
0.052000
 43
1.000000
 50
180.000000
  0
INSERT
  8
17
  2
LONGP100
 10
1.100000
 20
1.550000
 30
0.000000
 41
0.052000
 42
0.052000
 43
1.000000
 50
180.000000
  0
LINE
  8
21
 10
3.660630
 20
1.717323
 30
0.000000
 11
3.660630
 21
1.540157
 31
0.000000
  0
LINE
  8
21
 10
3.700000
 20
1.382677
 30
0.000000
 11
3.869291
 21
1.382677
 31
0.000000
  0
LINE
  8
21
 10
3.943701
 20
1.382677
 30
0.000000
 11
4.077953
 21
1.382677
 31
0.000000
  0
LINE
  8
21
 10
4.077953
 20
1.717323
 30
0.000000
 11
3.660630
 21
1.717323
 31
0.000000
  0
LINE
  8
21
 10
4.077953
 20
1.382677
 30
0.000000
 11
4.077953
 21
1.717323
 31
0.000000
  0
LINE
  8
21
 10
4.077953
 20
1.717323
 30
0.000000
 11
4.077953
 21
1.715354
 31
0.000000
  0
INSERT
  8
17
  2
LONGP100
 10
3.904724
 20
1.451575
 30
0.000000
 41
0.078740
 42
0.078740
 43
1.000000
 50
90.000000
  0
INSERT
  8
17
  2
LONGP100
 10
3.774803
 20
1.648425
 30
0.000000
 41
0.078740
 42
0.078740
 43
1.000000
 50
180.000000
  0
INSERT
  8
17
  2
LONGP100
 10
3.656693
 20
1.451575
 30
0.000000
 41
0.078740
 42
0.078740
 43
1.000000
 50
90.000000
  0
INSERT
  8
16
  2
RECT
 10
0.000000
 20
1.950000
 30
0.000000
 41
0.055000
 42
0.400000
 43
1.000000
 50
90.000000
  0
INSERT
  8
16
  2
RECT
 10
0.000000
 20
1.950000
 30
0.000000
 41
0.055000
 42
0.400000
 43
1.000000
 50
270.000000
  0
INSERT
  8
16
  2
RECT
 10
0.000000
 20
1.850000
 30
0.000000
 41
0.055000
 42
0.400000
 43
1.000000
 50
90.000000
  0
INSERT
  8
16
  2
RECT
 10
0.000000
 20
1.850000
 30
0.000000
 41
0.055000
 42
0.400000
 43
1.000000
 50
270.000000
  0
INSERT
  8
16
  2
RECT
 10
0.000000
 20
1.750000
 30
0.000000
 41
0.055000
 42
0.400000
 43
1.000000
 50
90.000000
  0
INSERT
  8
16
  2
RECT
 10
0.000000
 20
1.650000
 30
0.000000
 41
0.055000
 42
0.400000
 43
1.000000
 50
90.000000
  0
INSERT
  8
16
  2
RECT
 10
0.000000
 20
1.550000
 30
0.000000
 41
0.055000
 42
0.400000
 43
1.000000
 50
90.000000
  0
LINE
  8
21
 10
1.345000
 20
1.305000
 30
0.000000
 11
1.345000
 21
1.325000
 31
0.000000
  0
LINE
  8
21
 10
1.345000
 20
1.305000
 30
0.000000
 11
1.325000
 21
1.305000
 31
0.000000
  0
LINE
  8
21
 10
1.345000
 20
1.375000
 30
0.000000
 11
1.345000
 21
1.395000
 31
0.000000
  0
LINE
  8
21
 10
1.345000
 20
1.395000
 30
0.000000
 11
1.325000
 21
1.395000
 31
0.000000
  0
LINE
  8
21
 10
1.275000
 20
1.395000
 30
0.000000
 11
1.255000
 21
1.395000
 31
0.000000
  0
LINE
  8
21
 10
1.255000
 20
1.395000
 30
0.000000
 11
1.255000
 21
1.375000
 31
0.000000
  0
LINE
  8
21
 10
1.255000
 20
1.325000
 30
0.000000
 11
1.255000
 21
1.305000
 31
0.000000
  0
LINE
  8
21
 10
1.255000
 20
1.305000
 30
0.000000
 11
1.275000
 21
1.305000
 31
0.000000
  0
INSERT
  8
17
  2
OCTAGONP
 10
1.300000
 20
1.350000
 30
0.000000
 41
0.085000
 42
0.085000
 43
1.000000
 50
0.000000
  0
LINE
  8
21
 10
1.145000
 20
1.305000
 30
0.000000
 11
1.145000
 21
1.325000
 31
0.000000
  0
LINE
  8
21
 10
1.145000
 20
1.305000
 30
0.000000
 11
1.125000
 21
1.305000
 31
0.000000
  0
LINE
  8
21
 10
1.145000
 20
1.375000
 30
0.000000
 11
1.145000
 21
1.395000
 31
0.000000
  0
LINE
  8
21
 10
1.145000
 20
1.395000
 30
0.000000
 11
1.125000
 21
1.395000
 31
0.000000
  0
LINE
  8
21
 10
1.075000
 20
1.395000
 30
0.000000
 11
1.055000
 21
1.395000
 31
0.000000
  0
LINE
  8
21
 10
1.055000
 20
1.395000
 30
0.000000
 11
1.055000
 21
1.375000
 31
0.000000
  0
LINE
  8
21
 10
1.055000
 20
1.325000
 30
0.000000
 11
1.055000
 21
1.305000
 31
0.000000
  0
LINE
  8
21
 10
1.055000
 20
1.305000
 30
0.000000
 11
1.075000
 21
1.305000
 31
0.000000
  0
INSERT
  8
17
  2
OCTAGONP
 10
1.100000
 20
1.350000
 30
0.000000
 41
0.085000
 42
0.085000
 43
1.000000
 50
0.000000
  0
ARC
  8
21
 10
2.165000
 20
1.435000
 30
0.000000
 40
0.010000
 50
180.000000
 51
270.000000
  0
ARC
  8
21
 10
2.235000
 20
1.435000
 30
0.000000
 40
0.010000
 50
270.000000
 51
0.000000
  0
ARC
  8
21
 10
2.235000
 20
1.665000
 30
0.000000
 40
0.010000
 50
0.000000
 51
90.000000
  0
ARC
  8
21
 10
2.165000
 20
1.665000
 30
0.000000
 40
0.010000
 50
90.000000
 51
180.000000
  0
LINE
  8
21
 10
2.235000
 20
1.425000
 30
0.000000
 11
2.165000
 21
1.425000
 31
0.000000
  0
LINE
  8
21
 10
2.155000
 20
1.435000
 30
0.000000
 11
2.155000
 21
1.450000
 31
0.000000
  0
LINE
  8
21
 10
2.160000
 20
1.455000
 30
0.000000
 11
2.155000
 21
1.450000
 31
0.000000
  0
LINE
  8
21
 10
2.245000
 20
1.435000
 30
0.000000
 11
2.245000
 21
1.450000
 31
0.000000
  0
LINE
  8
21
 10
2.240000
 20
1.455000
 30
0.000000
 11
2.245000
 21
1.450000
 31
0.000000
  0
LINE
  8
21
 10
2.160000
 20
1.645000
 30
0.000000
 11
2.155000
 21
1.650000
 31
0.000000
  0
LINE
  8
21
 10
2.160000
 20
1.645000
 30
0.000000
 11
2.160000
 21
1.455000
 31
0.000000
  0
LINE
  8
21
 10
2.240000
 20
1.645000
 30
0.000000
 11
2.245000
 21
1.650000
 31
0.000000
  0
LINE
  8
21
 10
2.240000
 20
1.645000
 30
0.000000
 11
2.240000
 21
1.455000
 31
0.000000
  0
LINE
  8
21
 10
2.155000
 20
1.665000
 30
0.000000
 11
2.155000
 21
1.650000
 31
0.000000
  0
LINE
  8
21
 10
2.245000
 20
1.665000
 30
0.000000
 11
2.245000
 21
1.650000
 31
0.000000
  0
LINE
  8
21
 10
2.235000
 20
1.675000
 30
0.000000
 11
2.165000
 21
1.675000
 31
0.000000
  0
INSERT
  8
21
  2
RECT
 10
2.200000
 20
1.692000
 30
0.000000
 41
0.034000
 42
0.024000
 43
1.000000
 50
90.000000
  0
INSERT
  8
21
  2
RECT
 10
2.200000
 20
1.408000
 30
0.000000
 41
0.034000
 42
0.024000
 43
1.000000
 50
90.000000
  0
INSERT
  8
17
  2
OCTAGONP
 10
2.200000
 20
1.350000
 30
0.000000
 41
0.052000
 42
0.052000
 43
1.000000
 50
90.000000
  0
INSERT
  8
17
  2
OCTAGONP
 10
2.200000
 20
1.750000
 30
0.000000
 41
0.052000
 42
0.052000
 43
1.000000
 50
90.000000
  0
ARC
  8
21
 10
1.885000
 20
1.615000
 30
0.000000
 40
0.010000
 50
0.000000
 51
90.000000
  0
ARC
  8
21
 10
1.815000
 20
1.615000
 30
0.000000
 40
0.010000
 50
90.000000
 51
180.000000
  0
ARC
  8
21
 10
1.815000
 20
1.385000
 30
0.000000
 40
0.010000
 50
180.000000
 51
270.000000
  0
ARC
  8
21
 10
1.885000
 20
1.385000
 30
0.000000
 40
0.010000
 50
270.000000
 51
0.000000
  0
LINE
  8
21
 10
1.815000
 20
1.625000
 30
0.000000
 11
1.885000
 21
1.625000
 31
0.000000
  0
LINE
  8
21
 10
1.895000
 20
1.615000
 30
0.000000
 11
1.895000
 21
1.600000
 31
0.000000
  0
LINE
  8
21
 10
1.890000
 20
1.595000
 30
0.000000
 11
1.895000
 21
1.600000
 31
0.000000
  0
LINE
  8
21
 10
1.805000
 20
1.615000
 30
0.000000
 11
1.805000
 21
1.600000
 31
0.000000
  0
LINE
  8
21
 10
1.810000
 20
1.595000
 30
0.000000
 11
1.805000
 21
1.600000
 31
0.000000
  0
LINE
  8
21
 10
1.890000
 20
1.405000
 30
0.000000
 11
1.895000
 21
1.400000
 31
0.000000
  0
LINE
  8
21
 10
1.890000
 20
1.405000
 30
0.000000
 11
1.890000
 21
1.595000
 31
0.000000
  0
LINE
  8
21
 10
1.810000
 20
1.405000
 30
0.000000
 11
1.805000
 21
1.400000
 31
0.000000
  0
LINE
  8
21
 10
1.810000
 20
1.405000
 30
0.000000
 11
1.810000
 21
1.595000
 31
0.000000
  0
LINE
  8
21
 10
1.895000
 20
1.385000
 30
0.000000
 11
1.895000
 21
1.400000
 31
0.000000
  0
LINE
  8
21
 10
1.805000
 20
1.385000
 30
0.000000
 11
1.805000
 21
1.400000
 31
0.000000
  0
LINE
  8
21
 10
1.815000
 20
1.375000
 30
0.000000
 11
1.885000
 21
1.375000
 31
0.000000
  0
INSERT
  8
21
  2
RECT
 10
1.850000
 20
1.358000
 30
0.000000
 41
0.034000
 42
0.024000
 43
1.000000
 50
270.000000
  0
INSERT
  8
21
  2
RECT
 10
1.850000
 20
1.642000
 30
0.000000
 41
0.034000
 42
0.024000
 43
1.000000
 50
270.000000
  0
INSERT
  8
17
  2
OCTAGONP
 10
1.850000
 20
1.700000
 30
0.000000
 41
0.052000
 42
0.052000
 43
1.000000
 50
270.000000
  0
INSERT
  8
17
  2
OCTAGONP
 10
1.850000
 20
1.300000
 30
0.000000
 41
0.052000
 42
0.052000
 43
1.000000
 50
270.000000
  0
ARC
  8
21
 10
1.615000
 20
1.535000
 30
0.000000
 40
0.010000
 50
180.000000
 51
270.000000
  0
ARC
  8
21
 10
1.685000
 20
1.535000
 30
0.000000
 40
0.010000
 50
270.000000
 51
0.000000
  0
ARC
  8
21
 10
1.685000
 20
1.765000
 30
0.000000
 40
0.010000
 50
0.000000
 51
90.000000
  0
ARC
  8
21
 10
1.615000
 20
1.765000
 30
0.000000
 40
0.010000
 50
90.000000
 51
180.000000
  0
LINE
  8
21
 10
1.685000
 20
1.525000
 30
0.000000
 11
1.615000
 21
1.525000
 31
0.000000
  0
LINE
  8
21
 10
1.605000
 20
1.535000
 30
0.000000
 11
1.605000
 21
1.550000
 31
0.000000
  0
LINE
  8
21
 10
1.610000
 20
1.555000
 30
0.000000
 11
1.605000
 21
1.550000
 31
0.000000
  0
LINE
  8
21
 10
1.695000
 20
1.535000
 30
0.000000
 11
1.695000
 21
1.550000
 31
0.000000
  0
LINE
  8
21
 10
1.690000
 20
1.555000
 30
0.000000
 11
1.695000
 21
1.550000
 31
0.000000
  0
LINE
  8
21
 10
1.610000
 20
1.745000
 30
0.000000
 11
1.605000
 21
1.750000
 31
0.000000
  0
LINE
  8
21
 10
1.610000
 20
1.745000
 30
0.000000
 11
1.610000
 21
1.555000
 31
0.000000
  0
LINE
  8
21
 10
1.690000
 20
1.745000
 30
0.000000
 11
1.695000
 21
1.750000
 31
0.000000
  0
LINE
  8
21
 10
1.690000
 20
1.745000
 30
0.000000
 11
1.690000
 21
1.555000
 31
0.000000
  0
LINE
  8
21
 10
1.605000
 20
1.765000
 30
0.000000
 11
1.605000
 21
1.750000
 31
0.000000
  0
LINE
  8
21
 10
1.695000
 20
1.765000
 30
0.000000
 11
1.695000
 21
1.750000
 31
0.000000
  0
LINE
  8
21
 10
1.685000
 20
1.775000
 30
0.000000
 11
1.615000
 21
1.775000
 31
0.000000
  0
INSERT
  8
21
  2
RECT
 10
1.650000
 20
1.792000
 30
0.000000
 41
0.034000
 42
0.024000
 43
1.000000
 50
90.000000
  0
INSERT
  8
21
  2
RECT
 10
1.650000
 20
1.508000
 30
0.000000
 41
0.034000
 42
0.024000
 43
1.000000
 50
90.000000
  0
INSERT
  8
17
  2
OCTAGONP
 10
1.650000
 20
1.450000
 30
0.000000
 41
0.052000
 42
0.052000
 43
1.000000
 50
90.000000
  0
INSERT
  8
17
  2
OCTAGONP
 10
1.650000
 20
1.850000
 30
0.000000
 41
0.052000
 42
0.052000
 43
1.000000
 50
90.000000
  0
ARC
  8
21
 10
0.915000
 20
2.135000
 30
0.000000
 40
0.010000
 50
180.000000
 51
270.000000
  0
ARC
  8
21
 10
0.985000
 20
2.135000
 30
0.000000
 40
0.010000
 50
270.000000
 51
0.000000
  0
ARC
  8
21
 10
0.985000
 20
2.365000
 30
0.000000
 40
0.010000
 50
0.000000
 51
90.000000
  0
ARC
  8
21
 10
0.915000
 20
2.365000
 30
0.000000
 40
0.010000
 50
90.000000
 51
180.000000
  0
LINE
  8
21
 10
0.985000
 20
2.125000
 30
0.000000
 11
0.915000
 21
2.125000
 31
0.000000
  0
LINE
  8
21
 10
0.905000
 20
2.135000
 30
0.000000
 11
0.905000
 21
2.150000
 31
0.000000
  0
LINE
  8
21
 10
0.910000
 20
2.155000
 30
0.000000
 11
0.905000
 21
2.150000
 31
0.000000
  0
LINE
  8
21
 10
0.995000
 20
2.135000
 30
0.000000
 11
0.995000
 21
2.150000
 31
0.000000
  0
LINE
  8
21
 10
0.990000
 20
2.155000
 30
0.000000
 11
0.995000
 21
2.150000
 31
0.000000
  0
LINE
  8
21
 10
0.910000
 20
2.345000
 30
0.000000
 11
0.905000
 21
2.350000
 31
0.000000
  0
LINE
  8
21
 10
0.910000
 20
2.345000
 30
0.000000
 11
0.910000
 21
2.155000
 31
0.000000
  0
LINE
  8
21
 10
0.990000
 20
2.345000
 30
0.000000
 11
0.995000
 21
2.350000
 31
0.000000
  0
LINE
  8
21
 10
0.990000
 20
2.345000
 30
0.000000
 11
0.990000
 21
2.155000
 31
0.000000
  0
LINE
  8
21
 10
0.905000
 20
2.365000
 30
0.000000
 11
0.905000
 21
2.350000
 31
0.000000
  0
LINE
  8
21
 10
0.995000
 20
2.365000
 30
0.000000
 11
0.995000
 21
2.350000
 31
0.000000
  0
LINE
  8
21
 10
0.985000
 20
2.375000
 30
0.000000
 11
0.915000
 21
2.375000
 31
0.000000
  0
INSERT
  8
21
  2
RECT
 10
0.950000
 20
2.392000
 30
0.000000
 41
0.034000
 42
0.024000
 43
1.000000
 50
90.000000
  0
INSERT
  8
21
  2
RECT
 10
0.950000
 20
2.108000
 30
0.000000
 41
0.034000
 42
0.024000
 43
1.000000
 50
90.000000
  0
INSERT
  8
17
  2
OCTAGONP
 10
0.950000
 20
2.050000
 30
0.000000
 41
0.052000
 42
0.052000
 43
1.000000
 50
90.000000
  0
INSERT
  8
17
  2
OCTAGONP
 10
0.950000
 20
2.450000
 30
0.000000
 41
0.052000
 42
0.052000
 43
1.000000
 50
90.000000
  0
ARC
  8
21
 10
2.135000
 20
2.715000
 30
0.000000
 40
0.010000
 50
0.000000
 51
90.000000
  0
ARC
  8
21
 10
2.065000
 20
2.715000
 30
0.000000
 40
0.010000
 50
90.000000
 51
180.000000
  0
ARC
  8
21
 10
2.065000
 20
2.485000
 30
0.000000
 40
0.010000
 50
180.000000
 51
270.000000
  0
ARC
  8
21
 10
2.135000
 20
2.485000
 30
0.000000
 40
0.010000
 50
270.000000
 51
0.000000
  0
LINE
  8
21
 10
2.065000
 20
2.725000
 30
0.000000
 11
2.135000
 21
2.725000
 31
0.000000
  0
LINE
  8
21
 10
2.145000
 20
2.715000
 30
0.000000
 11
2.145000
 21
2.700000
 31
0.000000
  0
LINE
  8
21
 10
2.140000
 20
2.695000
 30
0.000000
 11
2.145000
 21
2.700000
 31
0.000000
  0
LINE
  8
21
 10
2.055000
 20
2.715000
 30
0.000000
 11
2.055000
 21
2.700000
 31
0.000000
  0
LINE
  8
21
 10
2.060000
 20
2.695000
 30
0.000000
 11
2.055000
 21
2.700000
 31
0.000000
  0
LINE
  8
21
 10
2.140000
 20
2.505000
 30
0.000000
 11
2.145000
 21
2.500000
 31
0.000000
  0
LINE
  8
21
 10
2.140000
 20
2.505000
 30
0.000000
 11
2.140000
 21
2.695000
 31
0.000000
  0
LINE
  8
21
 10
2.060000
 20
2.505000
 30
0.000000
 11
2.055000
 21
2.500000
 31
0.000000
  0
LINE
  8
21
 10
2.060000
 20
2.505000
 30
0.000000
 11
2.060000
 21
2.695000
 31
0.000000
  0
LINE
  8
21
 10
2.145000
 20
2.485000
 30
0.000000
 11
2.145000
 21
2.500000
 31
0.000000
  0
LINE
  8
21
 10
2.055000
 20
2.485000
 30
0.000000
 11
2.055000
 21
2.500000
 31
0.000000
  0
LINE
  8
21
 10
2.065000
 20
2.475000
 30
0.000000
 11
2.135000
 21
2.475000
 31
0.000000
  0
INSERT
  8
21
  2
RECT
 10
2.100000
 20
2.458000
 30
0.000000
 41
0.034000
 42
0.024000
 43
1.000000
 50
270.000000
  0
INSERT
  8
21
  2
RECT
 10
2.100000
 20
2.742000
 30
0.000000
 41
0.034000
 42
0.024000
 43
1.000000
 50
270.000000
  0
INSERT
  8
17
  2
OCTAGONP
 10
2.100000
 20
2.800000
 30
0.000000
 41
0.052000
 42
0.052000
 43
1.000000
 50
270.000000
  0
INSERT
  8
17
  2
OCTAGONP
 10
2.100000
 20
2.400000
 30
0.000000
 41
0.052000
 42
0.052000
 43
1.000000
 50
270.000000
  0
LINE
  8
21
 10
2.330000
 20
2.870000
 30
0.000000
 11
2.770000
 21
2.870000
 31
0.000000
  0
LINE
  8
21
 10
2.770000
 20
2.630000
 30
0.000000
 11
2.770000
 21
2.870000
 31
0.000000
  0
LINE
  8
21
 10
2.770000
 20
2.630000
 30
0.000000
 11
2.330000
 21
2.630000
 31
0.000000
  0
LINE
  8
21
 10
2.330000
 20
2.870000
 30
0.000000
 11
2.330000
 21
2.630000
 31
0.000000
  0
LINE
  8
21
 10
2.700000
 20
2.690000
 30
0.000000
 11
2.520000
 21
2.690000
 31
0.000000
  0
LINE
  8
21
 10
2.480000
 20
2.810000
 30
0.000000
 11
2.480000
 21
2.690000
 31
0.000000
  0
LINE
  8
21
 10
2.480000
 20
2.810000
 30
0.000000
 11
2.500000
 21
2.810000
 31
0.000000
  0
LINE
  8
21
 10
2.480000
 20
2.690000
 30
0.000000
 11
2.460000
 21
2.690000
 31
0.000000
  0
LINE
  8
21
 10
2.460000
 20
2.810000
 30
0.000000
 11
2.460000
 21
2.690000
 31
0.000000
  0
LINE
  8
21
 10
2.460000
 20
2.810000
 30
0.000000
 11
2.480000
 21
2.810000
 31
0.000000
  0
LINE
  8
21
 10
2.400000
 20
2.810000
 30
0.000000
 11
2.420000
 21
2.810000
 31
0.000000
  0
LINE
  8
21
 10
2.460000
 20
2.690000
 30
0.000000
 11
2.440000
 21
2.690000
 31
0.000000
  0
LINE
  8
21
 10
2.700000
 20
2.690000
 30
0.000000
 11
2.700000
 21
2.695000
 31
0.000000
  0
LINE
  8
21
 10
2.700000
 20
2.810000
 30
0.000000
 11
2.700000
 21
2.805000
 31
0.000000
  0
LINE
  8
21
 10
2.520000
 20
2.700000
 30
0.000000
 11
2.520000
 21
2.690000
 31
0.000000
  0
LINE
  8
21
 10
2.520000
 20
2.690000
 30
0.000000
 11
2.500000
 21
2.690000
 31
0.000000
  0
LINE
  8
21
 10
2.500000
 20
2.690000
 30
0.000000
 11
2.500000
 21
2.720000
 31
0.000000
  0
LINE
  8
21
 10
2.500000
 20
2.690000
 30
0.000000
 11
2.480000
 21
2.690000
 31
0.000000
  0
LINE
  8
21
 10
2.440000
 20
2.710000
 30
0.000000
 11
2.440000
 21
2.690000
 31
0.000000
  0
LINE
  8
21
 10
2.440000
 20
2.690000
 30
0.000000
 11
2.420000
 21
2.690000
 31
0.000000
  0
LINE
  8
21
 10
2.420000
 20
2.695000
 30
0.000000
 11
2.420000
 21
2.690000
 31
0.000000
  0
LINE
  8
21
 10
2.420000
 20
2.690000
 30
0.000000
 11
2.400000
 21
2.690000
 31
0.000000
  0
LINE
  8
21
 10
2.400000
 20
2.695000
 30
0.000000
 11
2.400000
 21
2.690000
 31
0.000000
  0
LINE
  8
21
 10
2.400000
 20
2.810000
 30
0.000000
 11
2.400000
 21
2.805000
 31
0.000000
  0
LINE
  8
21
 10
2.420000
 20
2.810000
 30
0.000000
 11
2.420000
 21
2.805000
 31
0.000000
  0
LINE
  8
21
 10
2.420000
 20
2.810000
 30
0.000000
 11
2.440000
 21
2.810000
 31
0.000000
  0
LINE
  8
21
 10
2.440000
 20
2.810000
 30
0.000000
 11
2.440000
 21
2.790000
 31
0.000000
  0
LINE
  8
21
 10
2.440000
 20
2.810000
 30
0.000000
 11
2.460000
 21
2.810000
 31
0.000000
  0
LINE
  8
21
 10
2.500000
 20
2.810000
 30
0.000000
 11
2.500000
 21
2.780000
 31
0.000000
  0
LINE
  8
21
 10
2.500000
 20
2.810000
 30
0.000000
 11
2.520000
 21
2.810000
 31
0.000000
  0
LINE
  8
21
 10
2.520000
 20
2.810000
 30
0.000000
 11
2.520000
 21
2.800000
 31
0.000000
  0
LINE
  8
21
 10
2.520000
 20
2.810000
 30
0.000000
 11
2.700000
 21
2.810000
 31
0.000000
  0
LINE
  8
21
 10
2.347500
 20
2.672526
 30
0.000000
 11
2.362513
 21
2.687538
 31
0.000000
  0
LINE
  8
21
 10
2.362513
 20
2.687538
 30
0.000000
 11
2.362513
 21
2.642500
 31
0.000000
  0
LINE
  8
21
 10
2.347500
 20
2.642500
 30
0.000000
 11
2.377526
 21
2.642500
 31
0.000000
  0
LINE
  8
21
 10
2.747526
 20
2.642500
 30
0.000000
 11
2.717500
 21
2.642500
 31
0.000000
  0
LINE
  8
21
 10
2.717500
 20
2.642500
 30
0.000000
 11
2.747526
 21
2.672526
 31
0.000000
  0
LINE
  8
21
 10
2.747526
 20
2.672526
 30
0.000000
 11
2.747526
 21
2.680032
 31
0.000000
  0
LINE
  8
21
 10
2.747526
 20
2.680032
 30
0.000000
 11
2.740019
 21
2.687538
 31
0.000000
  0
LINE
  8
21
 10
2.740019
 20
2.687538
 30
0.000000
 11
2.725006
 21
2.687538
 31
0.000000
  0
LINE
  8
21
 10
2.725006
 20
2.687538
 30
0.000000
 11
2.717500
 21
2.680032
 31
0.000000
  0
INSERT
  8
17
  2
LONGP100
 10
2.400000
 20
2.750000
 30
0.000000
 41
0.066000
 42
0.066000
 43
1.000000
 50
90.000000
  0
INSERT
  8
17
  2
LONGP100
 10
2.550000
 20
2.750000
 30
0.000000
 41
0.066000
 42
0.066000
 43
1.000000
 50
90.000000
  0
INSERT
  8
17
  2
LONGP100
 10
2.700000
 20
2.750000
 30
0.000000
 41
0.066000
 42
0.066000
 43
1.000000
 50
90.000000
  0
LINE
  8
21
 10
0.750000
 20
2.400000
 30
0.000000
 11
0.750000
 21
2.900000
 31
0.000000
  0
LINE
  8
21
 10
0.750000
 20
2.900000
 30
0.000000
 11
0.300000
 21
2.900000
 31
0.000000
  0
LINE
  8
21
 10
0.300000
 20
2.900000
 30
0.000000
 11
0.300000
 21
2.750000
 31
0.000000
  0
LINE
  8
21
 10
0.300000
 20
2.750000
 30
0.000000
 11
0.200000
 21
2.750000
 31
0.000000
  0
LINE
  8
21
 10
0.200000
 20
2.750000
 30
0.000000
 11
0.200000
 21
2.550000
 31
0.000000
  0
LINE
  8
21
 10
0.200000
 20
2.550000
 30
0.000000
 11
0.300000
 21
2.550000
 31
0.000000
  0
LINE
  8
21
 10
0.300000
 20
2.550000
 30
0.000000
 11
0.300000
 21
2.400000
 31
0.000000
  0
LINE
  8
21
 10
0.300000
 20
2.400000
 30
0.000000
 11
0.750000
 21
2.400000
 31
0.000000
  0
LINE
  8
21
 10
0.801961
 20
2.613882
 30
0.000000
 11
0.840327
 21
2.613882
 31
0.000000
  0
LINE
  8
21
 10
0.840327
 20
2.613882
 30
0.000000
 11
0.848000
 21
2.621555
 31
0.000000
  0
LINE
  8
21
 10
0.848000
 20
2.621555
 30
0.000000
 11
0.848000
 21
2.636902
 31
0.000000
  0
LINE
  8
21
 10
0.848000
 20
2.636902
 30
0.000000
 11
0.840327
 21
2.644575
 31
0.000000
  0
LINE
  8
21
 10
0.840327
 20
2.644575
 30
0.000000
 11
0.801961
 21
2.644575
 31
0.000000
  0
LINE
  8
21
 10
0.840327
 20
2.659921
 30
0.000000
 11
0.848000
 21
2.667594
 31
0.000000
  0
LINE
  8
21
 10
0.848000
 20
2.667594
 30
0.000000
 11
0.848000
 21
2.682941
 31
0.000000
  0
LINE
  8
21
 10
0.848000
 20
2.682941
 30
0.000000
 11
0.840327
 21
2.690614
 31
0.000000
  0
LINE
  8
21
 10
0.840327
 20
2.690614
 30
0.000000
 11
0.832654
 21
2.690614
 31
0.000000
  0
LINE
  8
21
 10
0.832654
 20
2.690614
 30
0.000000
 11
0.824980
 21
2.682941
 31
0.000000
  0
LINE
  8
21
 10
0.824980
 20
2.682941
 30
0.000000
 11
0.824980
 21
2.667594
 31
0.000000
  0
LINE
  8
21
 10
0.824980
 20
2.667594
 30
0.000000
 11
0.817307
 21
2.659921
 31
0.000000
  0
LINE
  8
21
 10
0.817307
 20
2.659921
 30
0.000000
 11
0.809634
 21
2.659921
 31
0.000000
  0
LINE
  8
21
 10
0.809634
 20
2.659921
 30
0.000000
 11
0.801961
 21
2.667594
 31
0.000000
  0
LINE
  8
21
 10
0.801961
 20
2.667594
 30
0.000000
 11
0.801961
 21
2.682941
 31
0.000000
  0
LINE
  8
21
 10
0.801961
 20
2.682941
 30
0.000000
 11
0.809634
 21
2.690614
 31
0.000000
  0
LINE
  8
21
 10
0.794288
 20
2.675268
 30
0.000000
 11
0.855673
 21
2.675268
 31
0.000000
  0
LINE
  8
21
 10
0.817307
 20
2.705961
 30
0.000000
 11
0.801961
 21
2.721307
 31
0.000000
  0
LINE
  8
21
 10
0.801961
 20
2.721307
 30
0.000000
 11
0.848000
 21
2.721307
 31
0.000000
  0
LINE
  8
21
 10
0.848000
 20
2.705961
 30
0.000000
 11
0.848000
 21
2.736653
 31
0.000000
  0
LINE
  8
21
 10
0.571307
 20
2.427000
 30
0.000000
 11
0.571307
 21
2.473039
 31
0.000000
  0
LINE
  8
21
 10
0.555961
 20
2.473039
 30
0.000000
 11
0.586654
 21
2.473039
 31
0.000000
  0
LINE
  8
21
 10
0.555961
 20
2.827000
 30
0.000000
 11
0.555961
 21
2.873039
 31
0.000000
  0
LINE
  8
21
 10
0.555961
 20
2.873039
 30
0.000000
 11
0.578980
 21
2.873039
 31
0.000000
  0
LINE
  8
21
 10
0.578980
 20
2.873039
 30
0.000000
 11
0.586654
 21
2.865366
 31
0.000000
  0
LINE
  8
21
 10
0.586654
 20
2.865366
 30
0.000000
 11
0.586654
 21
2.850020
 31
0.000000
  0
LINE
  8
21
 10
0.586654
 20
2.850020
 30
0.000000
 11
0.578980
 21
2.842346
 31
0.000000
  0
LINE
  8
21
 10
0.578980
 20
2.842346
 30
0.000000
 11
0.555961
 21
2.842346
 31
0.000000
  0
LINE
  8
21
 10
0.571307
 20
2.842346
 30
0.000000
 11
0.586654
 21
2.827000
 31
0.000000
  0
LINE
  8
21
 10
0.386654
 20
2.665366
 30
0.000000
 11
0.378980
 21
2.673039
 31
0.000000
  0
LINE
  8
21
 10
0.378980
 20
2.673039
 30
0.000000
 11
0.363634
 21
2.673039
 31
0.000000
  0
LINE
  8
21
 10
0.363634
 20
2.673039
 30
0.000000
 11
0.355961
 21
2.665366
 31
0.000000
  0
LINE
  8
21
 10
0.355961
 20
2.665366
 30
0.000000
 11
0.355961
 21
2.657693
 31
0.000000
  0
LINE
  8
21
 10
0.355961
 20
2.657693
 30
0.000000
 11
0.363634
 21
2.650020
 31
0.000000
  0
LINE
  8
21
 10
0.363634
 20
2.650020
 30
0.000000
 11
0.378980
 21
2.650020
 31
0.000000
  0
LINE
  8
21
 10
0.378980
 20
2.650020
 30
0.000000
 11
0.386654
 21
2.642346
 31
0.000000
  0
LINE
  8
21
 10
0.386654
 20
2.642346
 30
0.000000
 11
0.386654
 21
2.634673
 31
0.000000
  0
LINE
  8
21
 10
0.386654
 20
2.634673
 30
0.000000
 11
0.378980
 21
2.627000
 31
0.000000
  0
LINE
  8
21
 10
0.378980
 20
2.627000
 30
0.000000
 11
0.363634
 21
2.627000
 31
0.000000
  0
LINE
  8
21
 10
0.363634
 20
2.627000
 30
0.000000
 11
0.355961
 21
2.634673
 31
0.000000
  0
INSERT
  8
17
  2
LONGP100
 10
0.650000
 20
2.850000
 30
0.000000
 41
0.051496
 42
0.051496
 43
1.000000
 50
180.000000
  0
INSERT
  8
17
  2
LONGP100
 10
0.650000
 20
2.750000
 30
0.000000
 41
0.051496
 42
0.051496
 43
1.000000
 50
180.000000
  0
INSERT
  8
17
  2
LONGP100
 10
0.450000
 20
2.650000
 30
0.000000
 41
0.051496
 42
0.051496
 43
1.000000
 50
180.000000
  0
INSERT
  8
17
  2
LONGP100
 10
0.650000
 20
2.450000
 30
0.000000
 41
0.051496
 42
0.051496
 43
1.000000
 50
180.000000
  0
INSERT
  8
17
  2
LONGP100
 10
0.650000
 20
2.550000
 30
0.000000
 41
0.051496
 42
0.051496
 43
1.000000
 50
180.000000
  0
LINE
  8
21
 10
3.596063
 20
3.172835
 30
0.000000
 11
3.137795
 21
3.172835
 31
0.000000
  0
LINE
  8
21
 10
3.137795
 20
3.172835
 30
0.000000
 11
3.090551
 21
3.125591
 31
0.000000
  0
LINE
  8
21
 10
3.090551
 20
3.125591
 30
0.000000
 11
3.090551
 21
2.897638
 31
0.000000
  0
LINE
  8
21
 10
3.090551
 20
2.897638
 30
0.000000
 11
3.019685
 21
2.897638
 31
0.000000
  0
LINE
  8
21
 10
3.019685
 20
2.897638
 30
0.000000
 11
3.019685
 21
2.622441
 31
0.000000
  0
LINE
  8
21
 10
3.019685
 20
2.622441
 30
0.000000
 11
3.044488
 21
2.622441
 31
0.000000
  0
LINE
  8
21
 10
3.044488
 20
2.622441
 30
0.000000
 11
3.044488
 21
2.289370
 31
0.000000
  0
LINE
  8
21
 10
3.044488
 20
2.289370
 30
0.000000
 11
3.082283
 21
2.289370
 31
0.000000
  0
LINE
  8
21
 10
3.082283
 20
2.289370
 30
0.000000
 11
3.082283
 21
1.995276
 31
0.000000
  0
ARC
  8
21
 10
3.102362
 20
1.995276
 30
0.000000
 40
0.020079
 50
180.000000
 51
270.000000
  0
LINE
  8
21
 10
3.102362
 20
1.975197
 30
0.000000
 11
4.000000
 21
1.975197
 31
0.000000
  0
ARC
  8
21
 10
4.000000
 20
1.992913
 30
0.000000
 40
0.017717
 50
270.000000
 51
0.000000
  0
LINE
  8
21
 10
4.017717
 20
1.992913
 30
0.000000
 11
4.017717
 21
2.289370
 31
0.000000
  0
LINE
  8
21
 10
4.017717
 20
2.289370
 30
0.000000
 11
4.056693
 21
2.289370
 31
0.000000
  0
LINE
  8
21
 10
4.056693
 20
2.289370
 30
0.000000
 11
4.056693
 21
2.388583
 31
0.000000
  0
LINE
  8
21
 10
4.056693
 20
2.388583
 30
0.000000
 11
4.061417
 21
2.388583
 31
0.000000
  0
LINE
  8
21
 10
4.061417
 20
2.388583
 30
0.000000
 11
4.061417
 21
2.622441
 31
0.000000
  0
LINE
  8
21
 10
4.061417
 20
2.622441
 30
0.000000
 11
4.080315
 21
2.622441
 31
0.000000
  0
LINE
  8
21
 10
4.080315
 20
2.622441
 30
0.000000
 11
4.080315
 21
2.897638
 31
0.000000
  0
LINE
  8
21
 10
4.080315
 20
2.897638
 30
0.000000
 11
4.011811
 21
2.897638
 31
0.000000
  0
LINE
  8
21
 10
4.011811
 20
2.897638
 30
0.000000
 11
4.011811
 21
3.118504
 31
0.000000
  0
LINE
  8
21
 10
4.011811
 20
3.118504
 30
0.000000
 11
3.957480
 21
3.172835
 31
0.000000
  0
LINE
  8
21
 10
3.957480
 20
3.172835
 30
0.000000
 11
3.595276
 21
3.172835
 31
0.000000
  0
LINE
  8
21
 10
3.607874
 20
2.898819
 30
0.000000
 11
3.607874
 21
3.016929
 31
0.000000
  0
LINE
  8
21
 10
3.607874
 20
3.016929
 30
0.000000
 11
3.492126
 21
3.016929
 31
0.000000
  0
LINE
  8
21
 10
3.492126
 20
3.016929
 30
0.000000
 11
3.492126
 21
2.898819
 31
0.000000
  0
LINE
  8
21
 10
3.579528
 20
2.900000
 30
0.000000
 11
3.579528
 21
3.000394
 31
0.000000
  0
ARC
  8
21
 10
3.568898
 20
3.000394
 30
0.000000
 40
0.010630
 50
0.000000
 51
90.000000
  0
LINE
  8
21
 10
3.568898
 20
3.011024
 30
0.000000
 11
3.533465
 21
3.011024
 31
0.000000
  0
ARC
  8
21
 10
3.533465
 20
2.998031
 30
0.000000
 40
0.012992
 50
90.000000
 51
180.000000
  0
LINE
  8
21
 10
3.520472
 20
2.998031
 30
0.000000
 11
3.520472
 21
2.900000
 31
0.000000
  0
LINE
  8
21
 10
4.011811
 20
2.897638
 30
0.000000
 11
3.091732
 21
2.897638
 31
0.000000
  0
LINE
  8
21
 10
3.196850
 20
1.972835
 30
0.000000
 11
3.196850
 21
1.953937
 31
0.000000
  0
LINE
  8
21
 10
3.196850
 20
1.953937
 30
0.000000
 11
3.118898
 21
1.953937
 31
0.000000
  0
LINE
  8
21
 10
3.118898
 20
1.953937
 30
0.000000
 11
3.118898
 21
1.974016
 31
0.000000
  0
LINE
  8
21
 10
3.588976
 20
1.972835
 30
0.000000
 11
3.588976
 21
1.953937
 31
0.000000
  0
LINE
  8
21
 10
3.588976
 20
1.953937
 30
0.000000
 11
3.494488
 21
1.953937
 31
0.000000
  0
LINE
  8
21
 10
3.494488
 20
1.953937
 30
0.000000
 11
3.494488
 21
1.974016
 31
0.000000
  0
LINE
  8
21
 10
3.345669
 20
3.171654
 30
0.000000
 11
3.345669
 21
3.150394
 31
0.000000
  0
LINE
  8
21
 10
3.345669
 20
3.150394
 30
0.000000
 11
3.754331
 21
3.150394
 31
0.000000
  0
LINE
  8
21
 10
3.754331
 20
3.150394
 30
0.000000
 11
3.754331
 21
3.170472
 31
0.000000
  0
INSERT
  8
17
  2
ROUNDP
 10
3.309843
 20
2.175591
 30
0.000000
 41
0.070866
 42
0.070866
 43
1.000000
 50
0.000000
  0
INSERT
  8
17
  2
ROUNDP
 10
3.790157
 20
2.175591
 30
0.000000
 41
0.070866
 42
0.070866
 43
1.000000
 50
0.000000
  0
INSERT
  8
17
  2
ROUNDP
 10
3.550000
 20
2.175591
 30
0.000000
 41
0.070866
 42
0.070866
 43
1.000000
 50
0.000000
  0
INSERT
  8
17
  2
ROUNDP
 10
3.550000
 20
2.462992
 30
0.000000
 41
0.070866
 42
0.070866
 43
1.000000
 50
0.000000
  0
INSERT
  8
17
  2
ROUNDP
 10
3.506693
 20
2.319291
 30
0.000000
 41
0.070866
 42
0.070866
 43
1.000000
 50
0.000000
  0
INSERT
  8
17
  2
ROUNDP
 10
3.345276
 20
2.319291
 30
0.000000
 41
0.070866
 42
0.070866
 43
1.000000
 50
0.000000
  0
INSERT
  8
17
  2
ROUNDP
 10
3.431890
 20
1.915748
 30
0.000000
 41
0.070866
 42
0.070866
 43
1.000000
 50
0.000000
  0
INSERT
  8
17
  2
ROUNDP
 10
3.754724
 20
2.462992
 30
0.000000
 41
0.070866
 42
0.070866
 43
1.000000
 50
0.000000
  0
INSERT
  8
17
  2
ROUNDP
 10
3.668110
 20
2.329134
 30
0.000000
 41
0.070866
 42
0.070866
 43
1.000000
 50
0.000000
  0
INSERT
  8
17
  2
ROUNDP
 10
3.912205
 20
1.915748
 30
0.000000
 41
0.070866
 42
0.070866
 43
1.000000
 50
0.000000
  0
INSERT
  8
17
  2
ROUNDP
 10
3.668110
 20
1.915748
 30
0.000000
 41
0.070866
 42
0.070866
 43
1.000000
 50
0.000000
  0
LINE
  8
16
 10
2.700000
 20
1.700000
 30
0.000000
 11
2.700000
 21
1.550000
 31
0.000000
  0
LINE
  8
16
 10
2.700000
 20
1.550000
 30
0.000000
 11
2.650000
 21
1.500000
 31
0.000000
  0
LINE
  8
16
 10
2.650000
 20
1.500000
 30
0.000000
 11
2.600000
 21
1.500000
 31
0.000000
  0
LINE
  8
16
 10
3.345276
 20
2.319291
 30
0.000000
 11
3.345276
 21
2.211024
 31
0.000000
  0
LINE
  8
16
 10
3.345276
 20
2.211024
 30
0.000000
 11
3.309843
 21
2.175591
 31
0.000000
  0
LINE
  8
16
 10
2.200000
 20
1.350000
 30
0.000000
 11
2.600000
 21
1.350000
 31
0.000000
  0
LINE
  8
16
 10
2.600000
 20
1.350000
 30
0.000000
 11
2.600000
 21
1.500000
 31
0.000000
  0
LINE
  8
16
 10
2.200000
 20
1.350000
 30
0.000000
 11
2.025000
 21
1.350000
 31
0.000000
  0
LINE
  8
16
 10
2.025000
 20
1.350000
 30
0.000000
 11
2.025000
 21
1.475000
 31
0.000000
  0
LINE
  8
16
 10
3.309843
 20
2.175591
 30
0.000000
 11
3.309843
 21
1.659843
 31
0.000000
  0
LINE
  8
16
 10
3.309843
 20
1.659843
 30
0.000000
 11
3.300000
 21
1.650000
 31
0.000000
  0
LINE
  8
16
 10
3.300000
 20
1.650000
 30
0.000000
 11
3.750000
 21
1.650000
 31
0.000000
  0
LINE
  8
16
 10
3.750000
 20
1.650000
 30
0.000000
 11
3.773228
 21
1.650000
 31
0.000000
  0
LINE
  8
16
 10
3.773228
 20
1.650000
 30
0.000000
 11
3.774803
 21
1.648425
 31
0.000000
  0
LINE
  8
16
 10
1.100000
 20
1.850000
 30
0.000000
 11
1.200000
 21
1.850000
 31
0.000000
  0
LINE
  8
16
 10
1.200000
 20
1.850000
 30
0.000000
 11
1.200000
 21
1.250000
 31
0.000000
  0
LINE
  8
16
 10
1.200000
 20
1.250000
 30
0.000000
 11
3.000000
 21
1.250000
 31
0.000000
  0
LINE
  8
16
 10
3.000000
 20
1.250000
 30
0.000000
 11
3.750000
 21
1.250000
 31
0.000000
  0
LINE
  8
16
 10
3.750000
 20
1.250000
 30
0.000000
 11
3.800000
 21
1.300000
 31
0.000000
  0
LINE
  8
16
 10
3.800000
 20
1.300000
 30
0.000000
 11
3.800000
 21
1.600000
 31
0.000000
  0
LINE
  8
16
 10
3.800000
 20
1.600000
 30
0.000000
 11
3.750000
 21
1.650000
 31
0.000000
  0
LINE
  8
16
 10
3.000000
 20
1.500000
 30
0.000000
 11
3.000000
 21
1.250000
 31
0.000000
  0
LINE
  8
16
 10
3.000000
 20
1.500000
 30
0.000000
 11
3.000000
 21
1.900000
 31
0.000000
  0
LINE
  8
16
 10
3.000000
 20
1.900000
 30
0.000000
 11
2.700000
 21
1.900000
 31
0.000000
  0
LINE
  8
16
 10
2.700000
 20
1.900000
 30
0.000000
 11
2.700000
 21
1.700000
 31
0.000000
  0
LINE
  8
16
 10
0.450000
 20
2.650000
 30
0.000000
 11
1.250000
 21
2.650000
 31
0.000000
  0
LINE
  8
16
 10
1.250000
 20
2.650000
 30
0.000000
 11
1.250000
 21
1.900000
 31
0.000000
  0
LINE
  8
16
 10
1.250000
 20
1.900000
 30
0.000000
 11
1.200000
 21
1.850000
 31
0.000000
  0
LINE
  8
16
 10
0.000000
 20
1.950000
 30
0.000000
 11
0.450000
 21
1.950000
 31
0.000000
  0
LINE
  8
16
 10
0.450000
 20
1.950000
 30
0.000000
 11
0.450000
 21
2.650000
 31
0.000000
  0
LINE
  8
16
 10
1.400000
 20
1.750000
 30
0.000000
 11
1.500000
 21
1.750000
 31
0.000000
  0
LINE
  8
16
 10
1.500000
 20
1.750000
 30
0.000000
 11
1.500000
 21
1.950000
 31
0.000000
  0
LINE
  8
16
 10
1.500000
 20
1.950000
 30
0.000000
 11
1.400000
 21
1.950000
 31
0.000000
  0
LINE
  8
16
 10
1.850000
 20
1.700000
 30
0.000000
 11
1.850000
 21
1.750000
 31
0.000000
  0
LINE
  8
16
 10
1.850000
 20
1.750000
 30
0.000000
 11
1.850000
 21
1.950000
 31
0.000000
  0
LINE
  8
16
 10
1.850000
 20
1.950000
 30
0.000000
 11
1.500000
 21
1.950000
 31
0.000000
  0
LINE
  8
16
 10
2.200000
 20
1.750000
 30
0.000000
 11
2.025000
 21
1.750000
 31
0.000000
  0
LINE
  8
16
 10
2.025000
 20
1.750000
 30
0.000000
 11
1.850000
 21
1.750000
 31
0.000000
  0
LINE
  8
16
 10
2.025000
 20
1.675000
 30
0.000000
 11
2.025000
 21
1.750000
 31
0.000000
  0
LINE
  8
16
 10
2.600000
 20
1.700000
 30
0.000000
 11
2.600000
 21
2.000000
 31
0.000000
  0
LINE
  8
16
 10
2.600000
 20
2.000000
 30
0.000000
 11
3.200000
 21
2.000000
 31
0.000000
  0
LINE
  8
16
 10
3.200000
 20
2.000000
 30
0.000000
 11
3.200000
 21
1.450000
 31
0.000000
  0
LINE
  8
16
 10
3.200000
 20
1.450000
 30
0.000000
 11
3.656693
 21
1.450000
 31
0.000000
  0
LINE
  8
16
 10
3.656693
 20
1.450000
 30
0.000000
 11
3.656693
 21
1.451575
 31
0.000000
  0
LINE
  8
16
 10
2.600000
 20
1.700000
 30
0.000000
 11
2.500000
 21
1.700000
 31
0.000000
  0
LINE
  8
16
 10
2.500000
 20
1.700000
 30
0.000000
 11
2.500000
 21
1.500000
 31
0.000000
  0
LINE
  8
16
 10
1.848425
 20
2.374409
 30
0.000000
 11
1.848425
 21
2.448425
 31
0.000000
  0
LINE
  8
16
 10
1.848425
 20
2.448425
 30
0.000000
 11
1.850000
 21
2.550000
 31
0.000000
  0
LINE
  8
16
 10
1.850000
 20
2.550000
 30
0.000000
 11
1.400000
 21
2.550000
 31
0.000000
  0
LINE
  8
16
 10
1.450000
 20
2.150000
 30
0.000000
 11
1.400000
 21
2.150000
 31
0.000000
  0
LINE
  8
16
 10
1.300000
 20
2.300000
 30
0.000000
 11
1.400000
 21
2.300000
 31
0.000000
  0
LINE
  8
16
 10
1.400000
 20
2.300000
 30
0.000000
 11
1.400000
 21
2.150000
 31
0.000000
  0
LINE
  8
16
 10
1.400000
 20
2.550000
 30
0.000000
 11
1.400000
 21
2.300000
 31
0.000000
  0
LINE
  8
16
 10
1.400000
 20
1.650000
 30
0.000000
 11
1.300000
 21
1.650000
 31
0.000000
  0
LINE
  8
16
 10
1.300000
 20
1.650000
 30
0.000000
 11
1.300000
 21
1.450000
 31
0.000000
  0
LINE
  8
16
 10
1.300000
 20
1.450000
 30
0.000000
 11
1.650000
 21
1.450000
 31
0.000000
  0
LINE
  8
16
 10
2.750000
 20
2.550000
 30
0.000000
 11
2.600000
 21
2.550000
 31
0.000000
  0
LINE
  8
16
 10
2.600000
 20
2.550000
 30
0.000000
 11
2.400000
 21
2.400000
 31
0.000000
  0
LINE
  8
16
 10
2.400000
 20
2.400000
 30
0.000000
 11
2.400000
 21
1.550000
 31
0.000000
  0
LINE
  8
16
 10
2.400000
 20
1.550000
 30
0.000000
 11
1.800000
 21
1.550000
 31
0.000000
  0
LINE
  8
16
 10
1.800000
 20
1.550000
 30
0.000000
 11
1.750000
 21
1.450000
 31
0.000000
  0
LINE
  8
16
 10
1.750000
 20
1.450000
 30
0.000000
 11
1.650000
 21
1.450000
 31
0.000000
  0
LINE
  8
16
 10
1.400000
 20
2.050000
 30
0.000000
 11
1.650000
 21
2.050000
 31
0.000000
  0
LINE
  8
16
 10
1.650000
 20
2.050000
 30
0.000000
 11
1.650000
 21
2.372835
 31
0.000000
  0
LINE
  8
16
 10
1.650000
 20
2.372835
 30
0.000000
 11
1.651575
 21
2.374409
 31
0.000000
  0
LINE
  8
16
 10
2.100000
 20
2.400000
 30
0.000000
 11
2.100000
 21
2.250000
 31
0.000000
  0
LINE
  8
16
 10
2.100000
 20
2.250000
 30
0.000000
 11
1.750000
 21
2.250000
 31
0.000000
  0
LINE
  8
16
 10
1.750000
 20
2.250000
 30
0.000000
 11
1.750000
 21
2.374409
 31
0.000000
  0
LINE
  8
16
 10
1.750000
 20
2.374409
 30
0.000000
 11
1.750000
 21
2.450000
 31
0.000000
  0
LINE
  8
16
 10
1.750000
 20
2.450000
 30
0.000000
 11
1.649409
 21
2.449409
 31
0.000000
  0
LINE
  8
16
 10
1.649409
 20
2.449409
 30
0.000000
 11
1.651575
 21
2.447244
 31
0.000000
  0
LINE
  8
16
 10
1.651575
 20
2.447244
 30
0.000000
 11
1.651575
 21
2.374409
 31
0.000000
  0
LINE
  8
16
 10
0.200000
 20
2.050000
 30
0.000000
 11
-0.175000
 21
2.050000
 31
0.000000
  0
LINE
  8
16
 10
-0.175000
 20
2.050000
 30
0.000000
 11
-0.225000
 21
2.000000
 31
0.000000
  0
LINE
  8
16
 10
-0.225000
 20
2.000000
 30
0.000000
 11
-0.225000
 21
1.500000
 31
0.000000
  0
LINE
  8
16
 10
-0.225000
 20
1.500000
 30
0.000000
 11
-0.175000
 21
1.450000
 31
0.000000
  0
LINE
  8
16
 10
-0.175000
 20
1.450000
 30
0.000000
 11
0.200000
 21
1.450000
 31
0.000000
  0
LINE
  8
16
 10
0.200000
 20
2.050000
 30
0.000000
 11
0.200000
 21
2.900000
 31
0.000000
  0
LINE
  8
16
 10
0.200000
 20
1.450000
 30
0.000000
 11
0.200000
 21
1.150000
 31
0.000000
  0
LINE
  8
16
 10
0.200000
 20
1.150000
 30
0.000000
 11
4.200000
 21
1.150000
 31
0.000000
  0
LINE
  8
16
 10
4.200000
 20
1.150000
 30
0.000000
 11
4.200000
 21
2.900000
 31
0.000000
  0
LINE
  8
16
 10
0.200000
 20
2.900000
 30
0.000000
 11
4.200000
 21
2.900000
 31
0.000000
  0
LINE
  8
16
 10
2.250000
 20
2.100000
 30
0.000000
 11
2.250000
 21
1.850000
 31
0.000000
  0
LINE
  8
16
 10
2.250000
 20
1.850000
 30
0.000000
 11
2.300000
 21
1.850000
 31
0.000000
  0
LINE
  8
16
 10
2.300000
 20
1.850000
 30
0.000000
 11
2.300000
 21
1.600000
 31
0.000000
  0
LINE
  8
16
 10
2.300000
 20
1.600000
 30
0.000000
 11
1.650000
 21
1.600000
 31
0.000000
  0
LINE
  8
16
 10
1.650000
 20
1.600000
 30
0.000000
 11
1.550000
 21
1.600000
 31
0.000000
  0
LINE
  8
16
 10
1.550000
 20
1.600000
 30
0.000000
 11
1.500000
 21
1.550000
 31
0.000000
  0
LINE
  8
16
 10
1.500000
 20
1.550000
 30
0.000000
 11
1.400000
 21
1.550000
 31
0.000000
  0
LINE
  8
16
 10
1.650000
 20
1.850000
 30
0.000000
 11
1.650000
 21
1.600000
 31
0.000000
  0
LINE
  8
16
 10
2.100000
 20
2.800000
 30
0.000000
 11
2.100000
 21
2.850000
 31
0.000000
  0
LINE
  8
16
 10
2.100000
 20
2.850000
 30
0.000000
 11
2.550000
 21
2.850000
 31
0.000000
  0
LINE
  8
16
 10
2.550000
 20
2.850000
 30
0.000000
 11
2.550000
 21
2.750000
 31
0.000000
  0
LINE
  8
16
 10
2.700000
 20
2.750000
 30
0.000000
 11
3.850000
 21
2.750000
 31
0.000000
  0
LINE
  8
16
 10
3.850000
 20
2.750000
 30
0.000000
 11
3.950000
 21
2.650000
 31
0.000000
  0
LINE
  8
16
 10
3.950000
 20
2.650000
 30
0.000000
 11
3.950000
 21
1.950000
 31
0.000000
  0
LINE
  8
16
 10
3.912205
 20
1.915748
 30
0.000000
 11
3.912205
 21
1.912205
 31
0.000000
  0
LINE
  8
16
 10
3.912205
 20
1.912205
 30
0.000000
 11
3.900000
 21
1.900000
 31
0.000000
  0
LINE
  8
16
 10
3.950000
 20
1.950000
 30
0.000000
 11
3.946457
 21
1.950000
 31
0.000000
  0
LINE
  8
16
 10
3.946457
 20
1.950000
 30
0.000000
 11
3.912205
 21
1.915748
 31
0.000000
  0
LINE
  8
16
 10
3.790157
 20
2.175591
 30
0.000000
 11
3.790157
 21
2.190157
 31
0.000000
  0
LINE
  8
16
 10
3.790157
 20
2.190157
 30
0.000000
 11
3.850000
 21
2.250000
 31
0.000000
  0
LINE
  8
16
 10
3.850000
 20
2.250000
 30
0.000000
 11
3.850000
 21
2.550000
 31
0.000000
  0
LINE
  8
16
 10
3.850000
 20
2.550000
 30
0.000000
 11
2.850000
 21
2.550000
 31
0.000000
  0
LINE
  8
16
 10
2.400000
 20
2.750000
 30
0.000000
 11
2.250000
 21
2.750000
 31
0.000000
  0
LINE
  8
16
 10
2.250000
 20
2.750000
 30
0.000000
 11
2.250000
 21
2.200000
 31
0.000000
  0
LINE
  8
16
 10
1.100000
 20
1.950000
 30
0.000000
 11
1.200000
 21
1.950000
 31
0.000000
  0
LINE
  8
16
 10
1.200000
 20
1.950000
 30
0.000000
 11
1.200000
 21
2.300000
 31
0.000000
  0
LINE
  8
16
 10
0.950000
 20
2.050000
 30
0.000000
 11
1.100000
 21
2.050000
 31
0.000000
  0
LINE
  8
16
 10
1.100000
 20
2.150000
 30
0.000000
 11
1.100000
 21
2.450000
 31
0.000000
  0
LINE
  8
16
 10
1.100000
 20
2.450000
 30
0.000000
 11
0.950000
 21
2.450000
 31
0.000000
  0
LINE
  8
16
 10
0.950000
 20
2.450000
 30
0.000000
 11
0.650000
 21
2.450000
 31
0.000000
  0
LINE
  8
16
 10
0.650000
 20
2.450000
 30
0.000000
 11
0.600000
 21
2.400000
 31
0.000000
  0
LINE
  8
16
 10
0.600000
 20
2.400000
 30
0.000000
 11
0.600000
 21
1.850000
 31
0.000000
  0
LINE
  8
16
 10
0.600000
 20
1.850000
 30
0.000000
 11
0.000000
 21
1.850000
 31
0.000000
  0
LINE
  8
16
 10
2.800000
 20
1.700000
 30
0.000000
 11
2.900000
 21
1.700000
 31
0.000000
  0
LINE
  8
16
 10
2.900000
 20
1.700000
 30
0.000000
 11
2.900000
 21
1.500000
 31
0.000000
  0
LINE
  8
16
 10
2.800000
 20
1.700000
 30
0.000000
 11
2.800000
 21
1.300000
 31
0.000000
  0
LINE
  8
16
 10
2.800000
 20
1.300000
 30
0.000000
 11
1.850000
 21
1.300000
 31
0.000000
  0
LINE
  8
16
 10
1.250000
 20
1.800000
 30
0.000000
 11
1.300000
 21
1.850000
 31
0.000000
  0
LINE
  8
16
 10
1.300000
 20
1.850000
 30
0.000000
 11
1.400000
 21
1.850000
 31
0.000000
  0
LINE
  8
16
 10
1.300000
 20
1.350000
 30
0.000000
 11
1.250000
 21
1.400000
 31
0.000000
  0
LINE
  8
16
 10
1.250000
 20
1.400000
 30
0.000000
 11
1.250000
 21
1.800000
 31
0.000000
  0
LINE
  8
16
 10
1.300000
 20
1.350000
 30
0.000000
 11
1.350000
 21
1.300000
 31
0.000000
  0
LINE
  8
16
 10
1.350000
 20
1.300000
 30
0.000000
 11
1.850000
 21
1.300000
 31
0.000000
  0
LINE
  8
16
 10
1.100000
 20
1.350000
 30
0.000000
 11
0.600000
 21
1.350000
 31
0.000000
  0
LINE
  8
16
 10
0.600000
 20
1.350000
 30
0.000000
 11
0.600000
 21
1.750000
 31
0.000000
  0
LINE
  8
16
 10
0.600000
 20
1.750000
 30
0.000000
 11
0.000000
 21
1.750000
 31
0.000000
  0
ENDSEC
  0
EOF
