%
M48
M72
T01C0.0315
T02C0.0320
T03C0.0394
T04C0.0400
T05C0.0433
T06C0.0450
T07C0.0472
T08C0.0827
T09C0.0866
T10C0.1285
T11C0.1300
%
T01
X22500Y20500
X26000Y24500
X20500Y26000
X18500Y24000
X21500Y30500
T02
X20250Y30500
X18250Y30500
X15500Y28500
X15500Y27500
X15500Y26500
X15500Y25500
X14500Y24000
X14500Y22000
X16500Y22000
X12500Y25500
X12500Y26500
X12500Y27500
X12500Y28500
X9500Y27000
X8500Y27000
X21500Y28000
X23500Y28000
X24500Y26000
X24250Y24500
X22500Y24500
X24250Y22500
X26000Y20500
X27500Y23000
X28500Y23000
X30500Y23000
X31500Y23000
X25500Y30500
T03
X39067Y21516
X40248Y23484
X41547Y21516
T04
X30500Y25000
X29500Y25000
X28500Y25000
T05
X28343Y33739
X26805Y33740
X29935Y33741
T06
X30750Y33000
X30750Y35500
X26000Y35500
X26000Y33000
T07
X22469Y33382
X21500Y33382
X20531Y33382
X35953Y30193
X35598Y28756
X37567Y30193
X38000Y28756
X39181Y30291
X40047Y31630
X38000Y31630
X40402Y28756
X41622Y26157
X39181Y26157
X36819Y26157
T08
X36425Y33244
T09
X23250Y32441
X19750Y32441
T10
X6500Y21000
T11
X29500Y30900
M30
